<?xml version="1.0" standalone="no"?>
<!DOCTYPE svg PUBLIC "-//W3C//DTD SVG 20010904//EN"
 "http://www.w3.org/TR/2001/REC-SVG-20010904/DTD/svg10.dtd">
<svg version="1.0" xmlns="http://www.w3.org/2000/svg"
 width="700.000000pt" height="700.000000pt" viewBox="0 0 700.000000 700.000000"
 preserveAspectRatio="xMidYMid meet">
<metadata>
Created by potrace 1.14, written by Peter Selinger 2001-2017
</metadata>
<g transform="translate(0.000000,700.000000) scale(0.100000,-0.100000)"
fill="#000000" stroke="none">
<path d="M6085 5830 c-96 -15 -183 -80 -227 -170 -21 -43 -22 -56 -23 -361 -2
-371 1 -386 89 -474 145 -144 383 -97 469 94 20 44 21 62 21 351 0 168 -3 319
-6 336 -13 67 -58 133 -124 180 -48 35 -134 53 -199 44z"/>
<path d="M779 5817 c-78 -29 -127 -75 -167 -157 l-27 -55 0 -2090 c1 -1149 3
-2104 7 -2121 29 -148 186 -250 338 -220 94 19 159 70 208 161 l27 50 1 2090
c1 1360 -2 2104 -8 2130 -21 83 -70 147 -147 193 -53 31 -173 41 -232 19z"/>
<path d="M3699 5235 c-54 -19 -101 -53 -136 -100 -45 -58 -62 -112 -59 -188 4
-120 7 -123 524 -640 258 -257 479 -479 492 -492 l23 -25 -1419 0 c-899 0
-1432 -4 -1454 -10 -91 -25 -176 -112 -201 -204 -16 -57 -6 -153 20 -205 38
-74 105 -129 185 -152 18 -5 647 -9 1450 -9 781 0 1417 -2 1415 -5 -2 -2 -226
-227 -496 -498 -393 -393 -497 -503 -515 -543 -32 -69 -32 -181 -1 -244 51
-103 145 -164 256 -167 135 -3 85 -46 934 800 550 549 769 774 789 811 20 37
28 68 32 121 4 65 1 78 -27 136 -28 58 -103 136 -793 825 -726 724 -766 762
-821 783 -65 24 -140 26 -198 6z"/>
<path d="M6023 4283 c-61 -21 -136 -92 -164 -155 l-24 -53 0 -575 0 -575 23
-51 c45 -99 137 -164 243 -172 98 -7 160 17 229 87 89 91 87 66 85 721 l-1
565 -23 53 c-29 65 -104 134 -168 156 -57 20 -144 19 -200 -1z"/>
<path d="M6060 2254 c-104 -38 -158 -82 -198 -163 l-27 -56 -2 -300 c-2 -329
5 -378 55 -445 50 -66 97 -97 177 -115 150 -35 310 66 342 215 5 25 9 180 8
345 -1 282 -2 303 -22 346 -48 107 -139 169 -253 175 -36 2 -72 1 -80 -2z"/>
</g>
</svg>
